<?xml version="1.0" standalone="no"?><!DOCTYPE svg PUBLIC "-//W3C//DTD SVG 1.1//EN" "http://www.w3.org/Graphics/SVG/1.1/DTD/svg11.dtd"><svg class="icon" width="48px" height="39.26px" viewBox="0 0 1252 1024" version="1.1" xmlns="http://www.w3.org/2000/svg"><path d="M453.618399 216.520266c-23.976382-28.326648-51.006566-59.030147-79.624508-91.533379-28.896928-32.819143-58.77441-66.748759-86.053493-98.919669-34.607935-34.292024-71.371173-34.79119-103.090783-1.254069-26.205534 29.413873-56.076178 60.83535-84.966268 91.224307-29.074713 30.58452-59.136818 62.202929-85.710231 92.032545-18.373414 20.904801-14.927116 37.720543-11.230553 45.879515 5.80537 12.834722 18.997029 20.506836 28.397762 20.506836l40.976747 0L72.317072 413.704534c0 23.41841 16.691292 48.487487 41.541557 48.487487l79.434415 0L193.293044 323.716519l86.87404 0 0 138.475502 80.011533 0c15.431753 0 41.547027-12.495562 41.547027-59.325544l0-128.410126 30.007402 0c11.759805 0 21.967409-6.227951 27.310537-16.668044C465.378205 245.417194 463.518298 230.193313 453.618399 216.520266z" /></svg>